<svg width="32" height="32" viewBox="0 0 32 32" fill="none" xmlns="http://www.w3.org/2000/svg">
<path d="M5.85935 21.4147C6.12468 21.36 6.39535 21.3333 6.66602 21.3333H7.99935V0.133333C4.89535 0.766667 2.66602 3.49867 2.66602 6.66667V22.7C3.59802 21.9973 4.69935 21.5533 5.85935 21.4147ZM29.3327 24H6.66602C4.45668 24 2.66602 25.7907 2.66602 28C2.66602 30.2093 4.45668 32 6.66602 32H22.666C26.3473 32 29.3327 29.0147 29.3327 25.3333V24ZM29.3327 6.66667V21.3333H10.666V0H17.3327V13.7973C17.3327 14.628 18.3873 14.984 18.8913 14.324L20.666 12L22.4407 14.324C22.9447 14.984 23.9993 14.628 23.9993 13.7973V0.134667C27.042 0.752 29.3327 3.44133 29.3327 6.66667Z" fill="#F45050"/>
</svg>
