<svg width="32" height="32" viewBox="0 0 32 32" fill="none" xmlns="http://www.w3.org/2000/svg">
<g id="Facebook" clip-path="url(#clip0_1710_4770)">
<path id="Vector" d="M32 16C32 24.8367 24.8367 32 16 32C7.16333 32 0 24.8367 0 16C0 7.16333 7.16333 0 16 0C24.8367 0 32 7.16333 32 16Z" fill="#4A7AFF"/>
<path id="Vector_2" d="M16.7014 31.9836C25.2122 31.6162 31.9993 24.6011 31.9993 16C31.9993 15.9377 31.9976 15.8757 31.9968 15.8135L20.8906 4.70703L9.01562 17.1191L15.6135 23.717L12.5713 27.8535L16.7014 31.9836Z" fill="#0053BF"/>
<path id="Vector_3" d="M20.8909 4.70656V8.32961C20.8909 8.32961 16.7312 7.72585 16.7312 10.4094V13.093H20.4883L20.0188 17.1856H16.7312V27.853H12.5715V17.1856L9.01562 17.1184V13.093H12.5044V10.0069C12.5044 10.0069 12.2742 5.41579 16.7983 4.57253C18.677 4.22219 20.8909 4.70656 20.8909 4.70656Z" fill="white"/>
<path id="Vector_4" d="M20.8921 8.32961V4.70656C20.8921 4.70656 18.6782 4.22219 16.7996 4.57253C16.5061 4.62722 16.2332 4.69802 15.9785 4.78176V27.853H16.7324V17.1856H20.0198L20.4895 13.093H16.7324C16.7324 13.093 16.7324 13.093 16.7324 10.4094C16.7324 7.72585 20.8921 8.32961 20.8921 8.32961Z" fill="#DCE1EB"/>
</g>
<defs>
<clipPath id="clip0_1710_4770">
<rect width="32" height="32" fill="white"/>
</clipPath>
</defs>
</svg>
