<svg width="32" height="32" viewBox="0 0 32 32" fill="none" xmlns="http://www.w3.org/2000/svg">
<g id="Linkedin" clip-path="url(#clip0_1710_4791)">
<path id="Vector" d="M32 16C32 24.8367 24.8367 32 16 32C7.16333 32 0 24.8367 0 16C0 7.16333 7.16333 0 16 0C24.8367 0 32 7.16333 32 16Z" fill="#009AE5"/>
<path id="Vector_2" d="M31.6279 19.4414L24.5376 12.3936C24.3152 12.1501 24.0535 11.9375 23.7537 11.7583C23.2388 11.4512 22.5522 11.2957 21.7131 11.2957C20.5859 11.2957 19.5747 11.5071 18.7075 11.9246C18.4116 12.0669 18.1375 12.231 17.8855 12.4155L16.844 11.5388H15.5642L10.7678 6.74487C10.3481 6.28174 9.74243 5.99023 9.06958 5.99023H9.04346C7.77881 5.99023 6.75 7.01904 6.75 8.28369C6.75 8.89404 6.98999 9.44922 7.38037 9.86035L9.05786 11.5386H7.02051V24.4858L14.4614 31.9268C14.9678 31.9751 15.481 32.0007 16 32.0007C23.6553 32.0007 30.0537 26.624 31.6279 19.4414Z" fill="#0070B4"/>
<g id="Group">
<path id="Vector_3" d="M9.06958 5.99023H9.04346C7.77881 5.99023 6.75 7.01904 6.75 8.28369C6.75 9.54834 7.77881 10.5771 9.04346 10.5771H9.06958C10.3342 10.5771 11.363 9.54834 11.363 8.28369C11.363 7.01904 10.3342 5.99023 9.06958 5.99023Z" fill="white"/>
<path id="Vector_4" d="M7.01953 11.5391H11.0918V24.4861H7.01953V11.5391Z" fill="white"/>
<path id="Vector_5" d="M25.5103 14.5569C25.4197 13.981 25.2319 13.4429 24.9519 12.9573C24.6697 12.4678 24.2661 12.0642 23.7529 11.7576C23.238 11.4504 22.5515 11.2949 21.7124 11.2949C20.5852 11.2949 19.574 11.5063 18.7068 11.9238C17.9336 12.2957 17.3079 12.8142 16.8433 13.467V11.5378H13.1602V24.4851H17.2322V17.0908C17.3416 16.7825 17.4951 16.4927 17.6887 16.2295C17.885 15.9624 18.1123 15.7271 18.3645 15.53C18.6157 15.3335 18.8784 15.1782 19.1455 15.0684C19.4092 14.96 19.6755 14.9048 19.9375 14.9048C20.4321 14.9048 20.8188 15.0811 21.1199 15.4434C21.4204 15.8062 21.573 16.4043 21.573 17.2212V24.4851H25.645V16.2244C25.645 15.6895 25.5999 15.1284 25.5103 14.5569Z" fill="white"/>
</g>
<path id="Vector_6" d="M25.6455 16.2244V24.4851H21.5737V17.2212C21.5737 16.4043 21.4211 15.8062 21.1206 15.4438C20.8193 15.0813 20.4326 14.905 19.9382 14.905C19.6763 14.905 19.4099 14.96 19.1462 15.0681C18.8794 15.1782 18.6162 15.3337 18.365 15.53C18.113 15.7268 17.8857 15.9624 17.6895 16.2295C17.4956 16.4924 17.3425 16.7825 17.2332 17.0906V24.4851H16V11.5381H16.8438V13.4668C17.3088 12.8145 17.9343 12.2957 18.7075 11.9238C19.5745 11.5063 20.5857 11.2949 21.7131 11.2949C22.5525 11.2949 23.2388 11.4507 23.7537 11.7576C24.2668 12.0645 24.6707 12.468 24.9524 12.9575C25.2324 13.4431 25.4207 13.9812 25.5112 14.5569C25.6006 15.1282 25.6455 15.6895 25.6455 16.2244Z" fill="#FFF5CB"/>
</g>
<defs>
<clipPath id="clip0_1710_4791">
<rect width="32" height="32" fill="white"/>
</clipPath>
</defs>
</svg>
