<svg width="32" height="32" viewBox="0 0 32 32" fill="none" xmlns="http://www.w3.org/2000/svg">
<g clip-path="url(#clip0_1705_1813)">
<path d="M18.7155 4.83966C19.2312 5.01147 19.7463 4.71197 19.9014 4.24672L20.9055 1.23422C21.0693 0.743032 20.8038 0.212095 20.3126 0.0483446C19.8214 -0.115343 19.2905 0.150095 19.1267 0.641282L18.1226 3.65378C17.9588 4.14503 18.2243 4.67597 18.7155 4.83966Z" fill="#F45050"/>
<path d="M23.6922 6.62044L25.7005 4.61213C26.0666 4.246 26.0666 3.65244 25.7005 3.28631C25.3345 2.92019 24.7408 2.92019 24.3747 3.28631L22.3664 5.29463C22.0003 5.66075 22.0003 6.25431 22.3664 6.62044C22.7324 6.9865 23.3261 6.98663 23.6922 6.62044Z" fill="#F45050"/>
<path d="M3.01172 25.0377C3.01172 25.5555 3.43147 25.9752 3.94922 25.9752H6.93428L3.01172 22.0527V25.0377Z" fill="#F45050"/>
<path d="M15.6391 23.3516L11.3008 27.6899L15.337 31.7261C15.703 32.0922 16.2967 32.0923 16.6628 31.7261L19.6753 28.7136C20.0385 28.3645 20.0385 27.7369 19.6753 27.3878L15.6391 23.3516Z" fill="#F45050"/>
<path d="M28.938 8.67451C28.7743 8.18332 28.2433 7.91782 27.7521 8.08157L24.7396 9.0857C24.2744 9.24076 23.9748 9.75595 24.1467 10.2716C24.3104 10.7628 24.8414 11.0283 25.3326 10.8645L28.3451 9.86038C28.8362 9.69657 29.1016 9.1657 28.938 8.67451Z" fill="#F45050"/>
<path d="M8.64838 12.9883L3.28631 18.3504C2.92019 18.7165 2.92019 19.3101 3.28631 19.6762L9.97419 26.3641L15.9992 20.3391L8.64838 12.9883Z" fill="#F45050"/>
<path d="M11.6412 1.2785C11.2751 0.912375 10.6815 0.912375 10.3154 1.2785C9.94927 1.64462 9.94927 2.23819 10.3154 2.60431L11.914 4.20294L9.56445 11.2517L17.7347 19.422L24.7835 17.0724L26.3821 18.671C26.7481 19.0371 27.3418 19.0371 27.7079 18.671C28.074 18.3049 28.074 17.7113 27.7079 17.3452L11.6412 1.2785Z" fill="#F45050"/>
</g>
<defs>
<clipPath id="clip0_1705_1813">
<rect width="32" height="32" fill="white"/>
</clipPath>
</defs>
</svg>
