<svg width="32" height="32" viewBox="0 0 32 32" fill="none" xmlns="http://www.w3.org/2000/svg">
<g id="Whatsapp" clip-path="url(#clip0_1710_4806)">
<path id="Vector" d="M32 16C32 24.8367 24.8367 32 16 32C7.16333 32 0 24.8367 0 16C0 7.16333 7.16333 0 16 0C24.8367 0 32 7.16333 32 16Z" fill="#00BA65"/>
<path id="Vector_2" d="M31.999 16.0005C31.999 15.7983 31.9941 15.5977 31.9866 15.3975C28.3765 11.7881 24.0774 7.4917 24.0774 7.4917C22.0964 5.39478 19.2913 4.08398 16.1855 4.08398C10.1975 4.08398 5.32617 8.95532 5.32617 14.9434C5.32617 17.4888 6.2146 19.938 7.83643 21.8865L7.37036 26.1743L12.8948 31.6985C13.8992 31.896 14.9368 32.0005 15.999 32.0005C24.8357 32.0005 31.999 24.8372 31.999 16.0005Z" fill="#008B4A"/>
<path id="Vector_3" d="M21.6141 16.9229L20.4427 15.9265C20.0027 15.552 19.3431 15.6052 18.969 16.0454L18.0367 17.1411L13.6751 13.4304L14.608 12.3345C14.9817 11.895 14.9285 11.2354 14.4891 10.8609L13.3174 9.86452C12.878 9.4905 12.2181 9.54323 11.844 9.98317L11.3846 10.5237C10.306 11.791 10.459 13.6926 11.7269 14.7713L17.0257 19.2791C18.293 20.3577 20.1949 20.2046 21.273 18.9368L21.7327 18.3967C22.1067 17.9566 22.054 17.2969 21.6141 16.9229Z" fill="white"/>
<path id="Vector_4" d="M21.7332 18.3975L21.2729 18.9368C20.1953 20.2051 18.293 20.3582 17.0259 19.2798L16.3242 18.6827V15.6846L18.0366 17.1416L18.9695 16.0459C19.343 15.606 20.0029 15.5525 20.4429 15.9275L21.614 16.9234C22.054 17.2976 22.1067 17.9568 21.7332 18.3975Z" fill="#FFF5CB"/>
<path id="Vector_5" d="M16.1855 4.08398C10.1975 4.08398 5.32617 8.95532 5.32617 14.9434C5.32617 17.4888 6.2146 19.938 7.83643 21.8865L7.37036 26.1743L11.9734 24.9546C13.3074 25.5173 14.7227 25.8022 16.1855 25.8022C22.1733 25.8022 27.0449 20.9309 27.0449 14.9434C27.0449 8.95532 22.1733 4.08398 16.1855 4.08398ZM16.1855 23.9587C14.8765 23.9587 13.614 23.6843 12.4331 23.1431L12.1326 23.0054L9.49292 23.7048L9.75684 21.2771L9.4812 20.9707C7.99048 19.3135 7.16943 17.1731 7.16943 14.9434C7.16943 9.97192 11.2141 5.92725 16.1855 5.92725C21.157 5.92725 25.2014 9.97192 25.2014 14.9434C25.2017 19.9143 21.157 23.9587 16.1855 23.9587Z" fill="white"/>
<path id="Vector_6" d="M16.3242 4.08398V5.92798C21.2332 6.00098 25.2031 10.0176 25.2031 14.9431C25.2031 19.8679 21.2332 23.884 16.3242 23.957V25.801C22.2495 25.7273 27.0464 20.8855 27.0464 14.9431C27.0464 9.00073 22.2493 4.15771 16.3242 4.08398Z" fill="#FFF5CB"/>
</g>
<defs>
<clipPath id="clip0_1710_4806">
<rect width="32" height="32" fill="white"/>
</clipPath>
</defs>
</svg>
