<svg width="32" height="32" viewBox="0 0 32 32" fill="none" xmlns="http://www.w3.org/2000/svg">
<g id="Youtube" clip-path="url(#clip0_1710_4860)">
<path id="Vector" d="M16 32C24.8366 32 32 24.8366 32 16C32 7.16344 24.8366 0 16 0C7.16344 0 0 7.16344 0 16C0 24.8366 7.16344 32 16 32Z" fill="#D22215"/>
<path id="Vector_2" d="M24.0542 10.6465C23.5744 10.7929 23.0741 10.9187 22.573 11.044C19.0175 11.7982 14.2767 9.75111 12.2296 13.0912C10.5223 15.747 9.9832 19.0704 8.04102 21.4451L18.415 31.819C25.3193 30.774 30.7758 25.3168 31.8197 18.4121L24.0542 10.6465Z" fill="#A81411"/>
<path id="Vector_3" d="M21.3531 9.52148H10.647C8.5465 9.52148 6.84375 11.2243 6.84375 13.3247V18.6767C6.84375 20.7772 8.54656 22.48 10.647 22.48H21.3531C23.4536 22.48 25.1564 20.7772 25.1564 18.6767V13.3247C25.1564 11.2243 23.4536 9.52148 21.3531 9.52148ZM18.7809 16.2611L13.7734 18.6494C13.6399 18.713 13.4857 18.6159 13.4857 18.468V13.5422C13.4857 13.3922 13.644 13.295 13.7776 13.3628L18.7851 15.9004C18.9343 15.9758 18.9316 16.1894 18.7809 16.2611Z" fill="white"/>
<path id="Vector_4" d="M21.3534 9.52148H15.8926V14.4343L18.7855 15.9002C18.9345 15.9757 18.9318 16.1892 18.7812 16.261L15.8926 17.6388V22.48H21.3534C23.4539 22.48 25.1566 20.7772 25.1566 18.6767V13.3247C25.1566 11.2243 23.4538 9.52148 21.3534 9.52148Z" fill="#D1D1D1"/>
</g>
<defs>
<clipPath id="clip0_1710_4860">
<rect width="32" height="32" fill="white"/>
</clipPath>
</defs>
</svg>
